<svg id="visual" viewBox="0 0 600 900" width="600" height="900" xmlns="http://www.w3.org/2000/svg" xmlns:xlink="http://www.w3.org/1999/xlink" version="1.1"><rect x="0" y="0" width="600" height="900" fill="#cc0033"></rect><path d="M0 59L5.3 59.5C10.7 60 21.3 61 31.8 59.8C42.3 58.7 52.7 55.3 63.2 61.5C73.7 67.7 84.3 83.3 94.8 87.3C105.3 91.3 115.7 83.7 126.2 76.5C136.7 69.3 147.3 62.7 157.8 66.3C168.3 70 178.7 84 189.2 86.5C199.7 89 210.3 80 221 77.5C231.7 75 242.3 79 252.8 78.8C263.3 78.7 273.7 74.3 284.2 76.8C294.7 79.3 305.3 88.7 315.8 85.2C326.3 81.7 336.7 65.3 347.2 63.3C357.7 61.3 368.3 73.7 379 80.5C389.7 87.3 400.3 88.7 410.8 88C421.3 87.3 431.7 84.7 442.2 80C452.7 75.3 463.3 68.7 473.8 63.5C484.3 58.3 494.7 54.7 505.2 53.7C515.7 52.7 526.3 54.3 536.8 58.8C547.3 63.3 557.7 70.7 568.2 74.7C578.7 78.7 589.3 79.3 594.7 79.7L600 80L600 901L594.7 901C589.3 901 578.7 901 568.2 901C557.7 901 547.3 901 536.8 901C526.3 901 515.7 901 505.2 901C494.7 901 484.3 901 473.8 901C463.3 901 452.7 901 442.2 901C431.7 901 421.3 901 410.8 901C400.3 901 389.7 901 379 901C368.3 901 357.7 901 347.2 901C336.7 901 326.3 901 315.8 901C305.3 901 294.7 901 284.2 901C273.7 901 263.3 901 252.8 901C242.3 901 231.7 901 221 901C210.3 901 199.7 901 189.2 901C178.7 901 168.3 901 157.8 901C147.3 901 136.7 901 126.2 901C115.7 901 105.3 901 94.8 901C84.3 901 73.7 901 63.2 901C52.7 901 42.3 901 31.8 901C21.3 901 10.7 901 5.3 901L0 901Z" fill="#0fafd8"></path><path d="M0 154L5.3 156.5C10.7 159 21.3 164 31.8 160.8C42.3 157.7 52.7 146.3 63.2 147.3C73.7 148.3 84.3 161.7 94.8 168.3C105.3 175 115.7 175 126.2 172.8C136.7 170.7 147.3 166.3 157.8 158C168.3 149.7 178.7 137.3 189.2 132C199.7 126.7 210.3 128.3 221 130.8C231.7 133.3 242.3 136.7 252.8 137C263.3 137.3 273.7 134.7 284.2 132.3C294.7 130 305.3 128 315.8 126.8C326.3 125.7 336.7 125.3 347.2 129C357.7 132.7 368.3 140.3 379 140.5C389.7 140.7 400.3 133.3 410.8 135.8C421.3 138.3 431.7 150.7 442.2 158.7C452.7 166.7 463.3 170.3 473.8 167.2C484.3 164 494.7 154 505.2 153.7C515.7 153.3 526.3 162.7 536.8 167C547.3 171.3 557.7 170.7 568.2 162.7C578.7 154.7 589.3 139.3 594.7 131.7L600 124L600 901L594.7 901C589.3 901 578.7 901 568.2 901C557.7 901 547.3 901 536.8 901C526.3 901 515.7 901 505.2 901C494.7 901 484.3 901 473.8 901C463.3 901 452.7 901 442.2 901C431.7 901 421.3 901 410.8 901C400.3 901 389.7 901 379 901C368.3 901 357.7 901 347.2 901C336.7 901 326.3 901 315.8 901C305.3 901 294.7 901 284.2 901C273.7 901 263.3 901 252.8 901C242.3 901 231.7 901 221 901C210.3 901 199.7 901 189.2 901C178.7 901 168.3 901 157.8 901C147.3 901 136.7 901 126.2 901C115.7 901 105.3 901 94.8 901C84.3 901 73.7 901 63.2 901C52.7 901 42.3 901 31.8 901C21.3 901 10.7 901 5.3 901L0 901Z" fill="#11a6d1"></path><path d="M0 222L5.3 220.2C10.7 218.3 21.3 214.7 31.8 210.7C42.3 206.7 52.7 202.3 63.2 202.8C73.7 203.3 84.3 208.7 94.8 211.2C105.3 213.7 115.7 213.3 126.2 215.2C136.7 217 147.3 221 157.8 226.8C168.3 232.7 178.7 240.3 189.2 237C199.7 233.7 210.3 219.3 221 210.7C231.7 202 242.3 199 252.8 200.7C263.3 202.3 273.7 208.7 284.2 215.8C294.7 223 305.3 231 315.8 233.5C326.3 236 336.7 233 347.2 228.5C357.7 224 368.3 218 379 222C389.7 226 400.3 240 410.8 242C421.3 244 431.7 234 442.2 228.8C452.7 223.7 463.3 223.3 473.8 225C484.3 226.7 494.7 230.3 505.2 226.5C515.7 222.7 526.3 211.3 536.8 207.2C547.3 203 557.7 206 568.2 205.3C578.7 204.7 589.3 200.3 594.7 198.2L600 196L600 901L594.7 901C589.3 901 578.7 901 568.2 901C557.7 901 547.3 901 536.8 901C526.3 901 515.7 901 505.2 901C494.7 901 484.3 901 473.8 901C463.3 901 452.7 901 442.2 901C431.7 901 421.3 901 410.8 901C400.3 901 389.7 901 379 901C368.3 901 357.7 901 347.2 901C336.7 901 326.3 901 315.8 901C305.3 901 294.7 901 284.2 901C273.7 901 263.3 901 252.8 901C242.3 901 231.7 901 221 901C210.3 901 199.7 901 189.2 901C178.7 901 168.3 901 157.8 901C147.3 901 136.7 901 126.2 901C115.7 901 105.3 901 94.8 901C84.3 901 73.7 901 63.2 901C52.7 901 42.3 901 31.8 901C21.3 901 10.7 901 5.3 901L0 901Z" fill="#159eca"></path><path d="M0 311L5.3 310.5C10.7 310 21.3 309 31.8 305.5C42.3 302 52.7 296 63.2 290.7C73.7 285.3 84.3 280.7 94.8 280.2C105.3 279.7 115.7 283.3 126.2 282.7C136.7 282 147.3 277 157.8 282.8C168.3 288.7 178.7 305.3 189.2 306C199.7 306.7 210.3 291.3 221 290.3C231.7 289.3 242.3 302.7 252.8 304.7C263.3 306.7 273.7 297.3 284.2 295.7C294.7 294 305.3 300 315.8 299.5C326.3 299 336.7 292 347.2 292.7C357.7 293.3 368.3 301.7 379 301.5C389.7 301.3 400.3 292.7 410.8 292.3C421.3 292 431.7 300 442.2 299.8C452.7 299.7 463.3 291.3 473.8 285C484.3 278.7 494.7 274.3 505.2 280.5C515.7 286.7 526.3 303.3 536.8 309.7C547.3 316 557.7 312 568.2 309C578.7 306 589.3 304 594.7 303L600 302L600 901L594.7 901C589.3 901 578.7 901 568.2 901C557.7 901 547.3 901 536.8 901C526.3 901 515.7 901 505.2 901C494.7 901 484.3 901 473.8 901C463.3 901 452.7 901 442.2 901C431.7 901 421.3 901 410.8 901C400.3 901 389.7 901 379 901C368.3 901 357.7 901 347.2 901C336.7 901 326.3 901 315.8 901C305.3 901 294.7 901 284.2 901C273.7 901 263.3 901 252.8 901C242.3 901 231.7 901 221 901C210.3 901 199.7 901 189.2 901C178.7 901 168.3 901 157.8 901C147.3 901 136.7 901 126.2 901C115.7 901 105.3 901 94.8 901C84.3 901 73.7 901 63.2 901C52.7 901 42.3 901 31.8 901C21.3 901 10.7 901 5.3 901L0 901Z" fill="#1995c3"></path><path d="M0 346L5.3 346.5C10.7 347 21.3 348 31.8 348.5C42.3 349 52.7 349 63.2 352.5C73.7 356 84.3 363 94.8 365.2C105.3 367.3 115.7 364.7 126.2 366.3C136.7 368 147.3 374 157.8 377C168.3 380 178.7 380 189.2 379.2C199.7 378.3 210.3 376.7 221 374.8C231.7 373 242.3 371 252.8 371.8C263.3 372.7 273.7 376.3 284.2 375.8C294.7 375.3 305.3 370.7 315.8 369C326.3 367.3 336.7 368.7 347.2 371.2C357.7 373.7 368.3 377.3 379 375.5C389.7 373.7 400.3 366.3 410.8 365.3C421.3 364.3 431.7 369.7 442.2 373.2C452.7 376.7 463.3 378.3 473.8 375.8C484.3 373.3 494.7 366.7 505.2 369C515.7 371.3 526.3 382.7 536.8 385.5C547.3 388.3 557.7 382.7 568.2 380.5C578.7 378.3 589.3 379.7 594.7 380.3L600 381L600 901L594.7 901C589.3 901 578.7 901 568.2 901C557.7 901 547.3 901 536.8 901C526.3 901 515.7 901 505.2 901C494.7 901 484.3 901 473.8 901C463.3 901 452.7 901 442.2 901C431.7 901 421.3 901 410.8 901C400.3 901 389.7 901 379 901C368.3 901 357.7 901 347.2 901C336.7 901 326.3 901 315.8 901C305.3 901 294.7 901 284.2 901C273.7 901 263.3 901 252.8 901C242.3 901 231.7 901 221 901C210.3 901 199.7 901 189.2 901C178.7 901 168.3 901 157.8 901C147.3 901 136.7 901 126.2 901C115.7 901 105.3 901 94.8 901C84.3 901 73.7 901 63.2 901C52.7 901 42.3 901 31.8 901C21.3 901 10.7 901 5.3 901L0 901Z" fill="#1d8cbc"></path><path d="M0 456L5.3 454.7C10.7 453.3 21.3 450.7 31.8 446C42.3 441.3 52.7 434.7 63.2 434.2C73.7 433.7 84.3 439.3 94.8 444.8C105.3 450.3 115.7 455.7 126.2 459.3C136.7 463 147.3 465 157.8 467.5C168.3 470 178.7 473 189.2 470.2C199.7 467.3 210.3 458.7 221 456.2C231.7 453.7 242.3 457.3 252.8 456C263.3 454.7 273.7 448.3 284.2 445.7C294.7 443 305.3 444 315.8 444.7C326.3 445.3 336.7 445.7 347.2 449.5C357.7 453.3 368.3 460.7 379 465.2C389.7 469.7 400.3 471.3 410.8 465.3C421.3 459.3 431.7 445.7 442.2 439.7C452.7 433.7 463.3 435.3 473.8 436.3C484.3 437.3 494.7 437.7 505.2 438.2C515.7 438.7 526.3 439.3 536.8 436.3C547.3 433.3 557.7 426.7 568.2 424.5C578.7 422.3 589.3 424.7 594.7 425.8L600 427L600 901L594.7 901C589.3 901 578.7 901 568.2 901C557.7 901 547.3 901 536.8 901C526.3 901 515.7 901 505.2 901C494.7 901 484.3 901 473.8 901C463.3 901 452.7 901 442.2 901C431.7 901 421.3 901 410.8 901C400.3 901 389.7 901 379 901C368.3 901 357.7 901 347.2 901C336.7 901 326.3 901 315.8 901C305.3 901 294.7 901 284.2 901C273.7 901 263.3 901 252.8 901C242.3 901 231.7 901 221 901C210.3 901 199.7 901 189.2 901C178.7 901 168.3 901 157.8 901C147.3 901 136.7 901 126.2 901C115.7 901 105.3 901 94.8 901C84.3 901 73.7 901 63.2 901C52.7 901 42.3 901 31.8 901C21.3 901 10.7 901 5.3 901L0 901Z" fill="#2084b4"></path><path d="M0 534L5.3 536.2C10.7 538.3 21.3 542.7 31.8 545.5C42.3 548.3 52.7 549.7 63.2 548.5C73.7 547.3 84.3 543.7 94.8 537.3C105.3 531 115.7 522 126.2 523C136.7 524 147.3 535 157.8 538.3C168.3 541.7 178.7 537.3 189.2 533.5C199.7 529.7 210.3 526.3 221 525.7C231.7 525 242.3 527 252.8 522.5C263.3 518 273.7 507 284.2 502C294.7 497 305.3 498 315.8 498.8C326.3 499.7 336.7 500.3 347.2 508.3C357.7 516.3 368.3 531.7 379 538.7C389.7 545.7 400.3 544.3 410.8 543C421.3 541.7 431.7 540.3 442.2 535.5C452.7 530.7 463.3 522.3 473.8 515.8C484.3 509.3 494.7 504.7 505.2 507.3C515.7 510 526.3 520 536.8 524C547.3 528 557.7 526 568.2 529.2C578.7 532.3 589.3 540.7 594.7 544.8L600 549L600 901L594.7 901C589.3 901 578.7 901 568.2 901C557.7 901 547.3 901 536.8 901C526.3 901 515.7 901 505.2 901C494.7 901 484.3 901 473.8 901C463.3 901 452.7 901 442.2 901C431.7 901 421.3 901 410.8 901C400.3 901 389.7 901 379 901C368.3 901 357.7 901 347.2 901C336.7 901 326.3 901 315.8 901C305.3 901 294.7 901 284.2 901C273.7 901 263.3 901 252.8 901C242.3 901 231.7 901 221 901C210.3 901 199.7 901 189.2 901C178.7 901 168.3 901 157.8 901C147.3 901 136.7 901 126.2 901C115.7 901 105.3 901 94.8 901C84.3 901 73.7 901 63.2 901C52.7 901 42.3 901 31.8 901C21.3 901 10.7 901 5.3 901L0 901Z" fill="#237cac"></path><path d="M0 624L5.3 624C10.7 624 21.3 624 31.8 622.2C42.3 620.3 52.7 616.7 63.2 611.5C73.7 606.3 84.3 599.7 94.8 593.5C105.3 587.3 115.7 581.7 126.2 579.8C136.7 578 147.3 580 157.8 581C168.3 582 178.7 582 189.2 581.8C199.7 581.7 210.3 581.3 221 586.3C231.7 591.3 242.3 601.7 252.8 600.7C263.3 599.7 273.7 587.3 284.2 583.3C294.7 579.3 305.3 583.7 315.8 589.2C326.3 594.7 336.7 601.3 347.2 599.3C357.7 597.3 368.3 586.7 379 584.7C389.7 582.7 400.3 589.3 410.8 594.8C421.3 600.3 431.7 604.7 442.2 600.3C452.7 596 463.3 583 473.8 578.3C484.3 573.7 494.7 577.3 505.2 579.5C515.7 581.7 526.3 582.3 536.8 583.5C547.3 584.7 557.7 586.3 568.2 591.3C578.7 596.3 589.3 604.7 594.7 608.8L600 613L600 901L594.7 901C589.3 901 578.7 901 568.2 901C557.7 901 547.3 901 536.8 901C526.3 901 515.7 901 505.2 901C494.7 901 484.3 901 473.8 901C463.3 901 452.7 901 442.2 901C431.7 901 421.3 901 410.8 901C400.3 901 389.7 901 379 901C368.3 901 357.7 901 347.2 901C336.7 901 326.3 901 315.8 901C305.3 901 294.7 901 284.2 901C273.7 901 263.3 901 252.8 901C242.3 901 231.7 901 221 901C210.3 901 199.7 901 189.2 901C178.7 901 168.3 901 157.8 901C147.3 901 136.7 901 126.2 901C115.7 901 105.3 901 94.8 901C84.3 901 73.7 901 63.2 901C52.7 901 42.3 901 31.8 901C21.3 901 10.7 901 5.3 901L0 901Z" fill="#2673a4"></path><path d="M0 663L5.3 669.2C10.7 675.3 21.3 687.7 31.8 693.8C42.3 700 52.7 700 63.2 697.7C73.7 695.3 84.3 690.7 94.8 690.7C105.3 690.7 115.7 695.3 126.2 693.2C136.7 691 147.3 682 157.8 680.3C168.3 678.7 178.7 684.3 189.2 683.5C199.7 682.7 210.3 675.3 221 670.2C231.7 665 242.3 662 252.8 658.5C263.3 655 273.7 651 284.2 648.5C294.7 646 305.3 645 315.8 653.8C326.3 662.7 336.7 681.3 347.2 687.5C357.7 693.7 368.3 687.3 379 681.7C389.7 676 400.3 671 410.8 671.5C421.3 672 431.7 678 442.2 680C452.7 682 463.3 680 473.8 676.8C484.3 673.7 494.7 669.3 505.2 664.5C515.7 659.7 526.3 654.3 536.8 654.5C547.3 654.7 557.7 660.3 568.2 662.2C578.7 664 589.3 662 594.7 661L600 660L600 901L594.7 901C589.3 901 578.7 901 568.2 901C557.7 901 547.3 901 536.8 901C526.3 901 515.7 901 505.2 901C494.7 901 484.3 901 473.8 901C463.3 901 452.7 901 442.2 901C431.7 901 421.3 901 410.8 901C400.3 901 389.7 901 379 901C368.3 901 357.7 901 347.2 901C336.7 901 326.3 901 315.8 901C305.3 901 294.7 901 284.2 901C273.7 901 263.3 901 252.8 901C242.3 901 231.7 901 221 901C210.3 901 199.7 901 189.2 901C178.7 901 168.3 901 157.8 901C147.3 901 136.7 901 126.2 901C115.7 901 105.3 901 94.8 901C84.3 901 73.7 901 63.2 901C52.7 901 42.3 901 31.8 901C21.3 901 10.7 901 5.3 901L0 901Z" fill="#286b9c"></path><path d="M0 751L5.3 749C10.7 747 21.3 743 31.8 740.2C42.3 737.3 52.7 735.7 63.2 739.8C73.7 744 84.3 754 94.8 755.7C105.3 757.3 115.7 750.7 126.2 745C136.7 739.3 147.3 734.7 157.8 738.3C168.3 742 178.7 754 189.2 758.8C199.7 763.7 210.3 761.3 221 760.2C231.7 759 242.3 759 252.8 757.2C263.3 755.3 273.7 751.7 284.2 754.2C294.7 756.7 305.3 765.3 315.8 763.5C326.3 761.7 336.7 749.3 347.2 743.3C357.7 737.3 368.3 737.7 379 741.2C389.7 744.7 400.3 751.3 410.8 751.8C421.3 752.3 431.7 746.7 442.2 748.5C452.7 750.3 463.3 759.7 473.8 764C484.3 768.3 494.7 767.7 505.2 761.7C515.7 755.7 526.3 744.3 536.8 742.8C547.3 741.3 557.7 749.7 568.2 753.2C578.7 756.7 589.3 755.3 594.7 754.7L600 754L600 901L594.7 901C589.3 901 578.7 901 568.2 901C557.7 901 547.3 901 536.8 901C526.3 901 515.7 901 505.2 901C494.7 901 484.3 901 473.8 901C463.3 901 452.7 901 442.2 901C431.7 901 421.3 901 410.8 901C400.3 901 389.7 901 379 901C368.3 901 357.7 901 347.2 901C336.7 901 326.3 901 315.8 901C305.3 901 294.7 901 284.2 901C273.7 901 263.3 901 252.8 901C242.3 901 231.7 901 221 901C210.3 901 199.7 901 189.2 901C178.7 901 168.3 901 157.8 901C147.3 901 136.7 901 126.2 901C115.7 901 105.3 901 94.8 901C84.3 901 73.7 901 63.2 901C52.7 901 42.3 901 31.8 901C21.3 901 10.7 901 5.3 901L0 901Z" fill="#2a6394"></path><path d="M0 798L5.3 807C10.7 816 21.3 834 31.8 840.3C42.3 846.7 52.7 841.3 63.2 835.8C73.7 830.3 84.3 824.7 94.8 824.7C105.3 824.7 115.7 830.3 126.2 828.2C136.7 826 147.3 816 157.8 816.7C168.3 817.3 178.7 828.7 189.2 828C199.7 827.3 210.3 814.7 221 812.3C231.7 810 242.3 818 252.8 825.8C263.3 833.7 273.7 841.3 284.2 843.7C294.7 846 305.3 843 315.8 836.7C326.3 830.3 336.7 820.7 347.2 818C357.7 815.3 368.3 819.7 379 822.2C389.7 824.7 400.3 825.3 410.8 825.2C421.3 825 431.7 824 442.2 821.3C452.7 818.7 463.3 814.3 473.8 811.8C484.3 809.3 494.7 808.7 505.2 809.5C515.7 810.3 526.3 812.7 536.8 811C547.3 809.3 557.7 803.7 568.2 801.8C578.7 800 589.3 802 594.7 803L600 804L600 901L594.7 901C589.3 901 578.7 901 568.2 901C557.7 901 547.3 901 536.8 901C526.3 901 515.7 901 505.2 901C494.7 901 484.3 901 473.8 901C463.3 901 452.7 901 442.2 901C431.7 901 421.3 901 410.8 901C400.3 901 389.7 901 379 901C368.3 901 357.7 901 347.2 901C336.7 901 326.3 901 315.8 901C305.3 901 294.7 901 284.2 901C273.7 901 263.3 901 252.8 901C242.3 901 231.7 901 221 901C210.3 901 199.7 901 189.2 901C178.7 901 168.3 901 157.8 901C147.3 901 136.7 901 126.2 901C115.7 901 105.3 901 94.8 901C84.3 901 73.7 901 63.2 901C52.7 901 42.3 901 31.8 901C21.3 901 10.7 901 5.3 901L0 901Z" fill="#2b5b8b"></path></svg>